<svg width="32" height="32" viewBox="0 0 32 32" fill="none" xmlns="http://www.w3.org/2000/svg">
<g id="vuesax/outline/edit">
<g id="edit">
<path id="Vector" d="M19.9974 30.3307H11.9974C4.7574 30.3307 1.66406 27.2374 1.66406 19.9974V11.9974C1.66406 4.7574 4.7574 1.66406 11.9974 1.66406H14.6641C15.2107 1.66406 15.6641 2.1174 15.6641 2.66406C15.6641 3.21073 15.2107 3.66406 14.6641 3.66406H11.9974C5.85073 3.66406 3.66406 5.85073 3.66406 11.9974V19.9974C3.66406 26.1441 5.85073 28.3307 11.9974 28.3307H19.9974C26.1441 28.3307 28.3307 26.1441 28.3307 19.9974V17.3307C28.3307 16.7841 28.7841 16.3307 29.3307 16.3307C29.8774 16.3307 30.3307 16.7841 30.3307 17.3307V19.9974C30.3307 27.2374 27.2374 30.3307 19.9974 30.3307Z" fill="#1A183F"/>
<path id="Vector_2" d="M11.3299 23.5848C10.5165 23.5848 9.76986 23.2915 9.22319 22.7581C8.56986 22.1048 8.28986 21.1581 8.43653 20.1581L9.00986 16.1448C9.11653 15.3715 9.62319 14.3715 10.1699 13.8248L20.6765 3.31813C23.3299 0.664792 26.0232 0.664792 28.6765 3.31813C30.1299 4.77146 30.7832 6.25146 30.6499 7.73146C30.5299 8.93146 29.8899 10.1048 28.6765 11.3048L18.1699 21.8115C17.6232 22.3581 16.6232 22.8648 15.8499 22.9715L11.8365 23.5448C11.6632 23.5848 11.4899 23.5848 11.3299 23.5848ZM22.0899 4.73146L11.5832 15.2381C11.3299 15.4915 11.0365 16.0781 10.9832 16.4248L10.4099 20.4381C10.3565 20.8248 10.4365 21.1448 10.6365 21.3448C10.8365 21.5448 11.1565 21.6248 11.5432 21.5715L15.5565 20.9981C15.9032 20.9448 16.5032 20.6515 16.7432 20.3981L27.2499 9.89146C28.1165 9.02479 28.5699 8.25146 28.6365 7.53146C28.7165 6.66479 28.2632 5.74479 27.2499 4.71813C25.1165 2.58479 23.6499 3.18479 22.0899 4.73146Z" fill="#1A183F"/>
<path id="Vector_3" d="M26.4661 13.1044C26.3728 13.1044 26.2794 13.0911 26.1994 13.0644C22.6928 12.0778 19.9061 9.29109 18.9194 5.78442C18.7728 5.25109 19.0794 4.70442 19.6128 4.54442C20.1461 4.39776 20.6928 4.70442 20.8394 5.23776C21.6394 8.07776 23.8928 10.3311 26.7328 11.1311C27.2661 11.2778 27.5728 11.8378 27.4261 12.3711C27.3061 12.8244 26.9061 13.1044 26.4661 13.1044Z" fill="#1A183F"/>
</g>
</g>
</svg>
