<svg width="18" height="18" viewBox="0 0 18 18" fill="none" xmlns="http://www.w3.org/2000/svg">
<g id="vuesax/outline/facebook">
<g id="facebook">
<path id="Vector" d="M10.5466 16.4609H7.32864V11.2824H6.64928C6.23453 11.2824 5.89844 10.9467 5.89844 10.5324V9.17521C5.89844 8.76093 6.23453 8.42522 6.64928 8.42522H7.32864V6.63951C7.32864 5.16094 8.53 3.96094 10.0103 3.96094H11.941C12.3558 3.96094 12.6919 4.29664 12.6919 4.71093V6.42523C12.6919 6.83952 12.3558 7.17522 11.941 7.17522H10.5466V8.42522H11.891C12.1198 8.42522 12.3272 8.52523 12.4702 8.69666C12.6132 8.86808 12.6704 9.09665 12.6275 9.31808L12.3558 10.6752C12.2843 11.0252 11.9768 11.2752 11.6192 11.2752H10.5466V16.4609ZM8.40129 15.3895H9.47394V10.2109H11.3618L11.5048 9.49665H9.48109V6.85379C9.48109 6.4395 9.81718 6.10379 10.2319 6.10379H11.6264V5.03237H10.0103C9.12354 5.03237 8.40129 5.75379 8.40129 6.63951V9.49665H6.97109V10.2109H8.40129V15.3895Z" fill="#211F51"/>
<path id="Vector_2" d="M10.7232 16.4587H6.43265C2.54966 16.4587 0.890625 14.8016 0.890625 10.923V6.63728C0.890625 2.75871 2.54966 1.10156 6.43265 1.10156H10.7232C14.6062 1.10156 16.2653 2.75871 16.2653 6.63728V10.923C16.2653 14.8016 14.6062 16.4587 10.7232 16.4587ZM6.43265 2.17299C3.13604 2.17299 1.96327 3.34442 1.96327 6.63728V10.923C1.96327 14.2158 3.13604 15.3873 6.43265 15.3873H10.7232C14.0199 15.3873 15.1926 14.2158 15.1926 10.923V6.63728C15.1926 3.34442 14.0199 2.17299 10.7232 2.17299H6.43265Z" fill="black"/>
</g>
</g>
</svg>
