<svg width="18" height="18" viewBox="0 0 18 18" fill="none" xmlns="http://www.w3.org/2000/svg">
<g id="vuesax/outline/google">
<g id="google">
<path id="Vector" d="M8.72572 16.4587C5.83672 16.4587 3.23376 14.8658 1.90367 12.3016C1.88222 12.2801 1.86791 12.2516 1.85361 12.223C1.31013 11.1373 1.03125 9.98013 1.03125 8.78013C1.03125 7.58013 1.31013 6.42299 1.85361 5.33727C3.16939 2.72299 5.80097 1.10156 8.71857 1.10156C10.6779 1.10156 12.4585 1.79441 13.8673 3.10155C13.9746 3.20155 14.0389 3.33727 14.0389 3.48727C14.0389 3.63727 13.9817 3.773 13.8744 3.88014L11.8579 5.85156C11.6505 6.05156 11.3287 6.05871 11.1142 5.85871C10.6636 5.43728 9.88418 4.93727 8.71857 4.93727C7.24547 4.93727 5.89393 5.823 5.28609 7.20157C5.23603 7.31585 5.19313 7.42298 5.15022 7.54441C5.01435 7.9587 4.94999 8.38014 4.94999 8.78728C4.94999 9.19443 5.0215 9.60156 5.15022 10.0087C5.15022 10.0158 5.15737 10.023 5.15737 10.0373C5.67225 11.5944 7.10245 12.6373 8.71857 12.6373C9.56954 12.6373 10.2989 12.4301 10.8925 12.0158C11.436 11.6373 11.7792 11.1301 11.9651 10.673H8.72572C8.43253 10.673 8.18939 10.4301 8.18939 10.1373V7.48728C8.18939 7.19442 8.43253 6.95156 8.72572 6.95156H15.4405C15.6908 6.95156 15.9053 7.12298 15.9625 7.36584C16.0769 7.86584 16.127 8.33728 16.127 8.94443C16.127 11.2159 15.3118 13.223 13.8244 14.5944C12.5014 15.8087 10.7351 16.4587 8.72572 16.4587ZM2.77609 11.673C2.79754 11.7016 2.819 11.7373 2.8333 11.773C3.95601 13.9944 6.21572 15.3873 8.72572 15.3873C10.4634 15.3873 11.9723 14.8373 13.095 13.8016C14.3607 12.6373 15.0544 10.9087 15.0544 8.93728C15.0544 8.58013 15.0401 8.29441 14.9971 8.01584H9.26204V9.59443H12.6659C12.8161 9.59443 12.9663 9.65872 13.0664 9.773C13.1665 9.88729 13.2165 10.0444 13.1951 10.1944C13.1021 10.9944 12.6016 12.123 11.5075 12.8873C10.7351 13.423 9.79837 13.7016 8.71857 13.7016C6.65193 13.7016 4.82128 12.373 4.14909 10.3873C4.14909 10.3801 4.14193 10.373 4.14193 10.3658C3.96316 9.84442 3.87734 9.31586 3.87734 8.78728C3.87734 8.26585 3.96316 7.73727 4.13478 7.2087C4.18484 7.05155 4.24204 6.9087 4.3064 6.76584C5.09301 5.00156 6.82356 3.86584 8.71857 3.86584C9.94139 3.86584 10.8424 4.29442 11.4574 4.74442L12.7088 3.523C11.579 2.63729 10.206 2.17299 8.71857 2.17299C6.20857 2.17299 3.9417 3.56585 2.81185 5.81585C2.34703 6.75157 2.1039 7.75156 2.1039 8.78013C2.11105 9.78728 2.33273 10.7587 2.77609 11.673Z" fill="#211F51"/>
</g>
</g>
</svg>
