<svg width="24" height="24" viewBox="0 0 24 24" fill="none" xmlns="http://www.w3.org/2000/svg">
<g id="vuesax/outline/logout">
<g id="logout">
<path id="Vector" d="M15.2405 22.2666H15.1105C10.6705 22.2666 8.5305 20.5166 8.1605 16.5966C8.1205 16.1866 8.4205 15.8166 8.8405 15.7766C9.2405 15.7366 9.6205 16.0466 9.6605 16.4566C9.9505 19.5966 11.4305 20.7666 15.1205 20.7666H15.2505C19.3205 20.7666 20.7605 19.3266 20.7605 15.2566V8.73656C20.7605 4.66656 19.3205 3.22656 15.2505 3.22656H15.1205C11.4105 3.22656 9.9305 4.41656 9.6605 7.61656C9.6105 8.02656 9.2605 8.33656 8.8405 8.29656C8.4205 8.26656 8.1205 7.89656 8.1505 7.48656C8.4905 3.50656 10.6405 1.72656 15.1105 1.72656H15.2405C20.1505 1.72656 22.2505 3.82656 22.2505 8.73656V15.2566C22.2505 20.1666 20.1505 22.2666 15.2405 22.2666Z" fill="#CC1F14"/>
<path id="Vector_2" d="M14.9972 12.75H3.61719C3.20719 12.75 2.86719 12.41 2.86719 12C2.86719 11.59 3.20719 11.25 3.61719 11.25H14.9972C15.4072 11.25 15.7472 11.59 15.7472 12C15.7472 12.41 15.4072 12.75 14.9972 12.75Z" fill="#CC1F14"/>
<path id="Vector_3" d="M5.8475 16.1038C5.6575 16.1038 5.4675 16.0338 5.3175 15.8838L1.9675 12.5338C1.6775 12.2438 1.6775 11.7638 1.9675 11.4738L5.3175 8.12375C5.6075 7.83375 6.0875 7.83375 6.3775 8.12375C6.6675 8.41375 6.6675 8.89375 6.3775 9.18375L3.5575 12.0038L6.3775 14.8238C6.6675 15.1137 6.6675 15.5938 6.3775 15.8838C6.2375 16.0338 6.0375 16.1038 5.8475 16.1038Z" fill="#CC1F14"/>
</g>
</g>
</svg>
