<svg width="27" height="28" viewBox="0 0 27 28" fill="none" xmlns="http://www.w3.org/2000/svg">
<g id="remindpal 1" clip-path="url(#clip0_204_18187)">
<path id="Vector" d="M0 11.5768C0 5.98619 4.06405 1.32086 9.46935 0.235068C10.7819 -0.0285802 11.8794 1.05714 11.8794 2.36537V15.9932C11.8794 21.5839 7.81537 26.2492 2.41007 27.335C1.09757 27.5987 0 26.5129 0 25.2047V11.5768Z" fill="#4318FF"/>
<path id="Vector_2" d="M13.6016 6.29261C13.6016 2.81729 16.4917 0 20.0567 0C23.6218 0 26.5119 2.81729 26.5119 6.29261V6.65588C26.5119 10.1312 23.6218 12.9485 20.0567 12.9485C16.4917 12.9485 13.6016 10.1312 13.6016 6.65588V6.29261Z" fill="#4CBFFF"/>
<path id="Vector_3" d="M13.0156 20.945C13.0156 18.1785 14.847 15.829 17.3925 14.9857C18.4987 14.6192 19.4708 15.5763 19.4708 16.7168C19.4708 17.7448 19.4708 19.0694 19.4708 20.4842C19.4708 21.0131 19.6787 21.5222 20.0515 21.9059L22.6692 24.5997C23.2721 25.2202 23.4067 26.1649 22.7035 26.6749C22.0525 27.1471 21.0231 27.6009 19.4708 27.6009C15.9057 27.6009 13.0156 24.7836 13.0156 21.3083V20.945Z" fill="#9328FF"/>
</g>
<defs>
<clipPath id="clip0_204_18187">
<rect width="27" height="28" fill="white"/>
</clipPath>
</defs>
</svg>
