<svg width="109" height="18" viewBox="0 0 109 18" fill="none" xmlns="http://www.w3.org/2000/svg">
<g id="Remindpal">
<path id="Vector" d="M106.094 14.0856V0.078125H108.995V14.0856H106.094Z" fill="url(#paint0_linear_125_14742)"/>
<path id="Vector_2" d="M100.56 4.48739H103.462V14.0815H100.56V12.9494C99.6908 13.8832 98.4689 14.3502 96.8946 14.3502C95.3953 14.3502 94.1059 13.864 93.0264 12.8918C91.9619 11.9068 91.4297 10.7044 91.4297 9.28445C91.4297 7.86452 91.9619 6.66845 93.0264 5.69625C94.1059 4.71125 95.3953 4.21875 96.8946 4.21875C98.4689 4.21875 99.6908 4.68566 100.56 5.61949V4.48739ZM95.2079 11.2417C95.7926 11.7405 96.5348 11.99 97.4344 11.99C98.334 11.99 99.0761 11.7405 99.6608 11.2417C100.261 10.73 100.56 10.0776 100.56 9.28445C100.56 8.49133 100.261 7.84533 99.6608 7.34644C99.0761 6.83475 98.334 6.5789 97.4344 6.5789C96.5348 6.5789 95.7926 6.83475 95.2079 7.34644C94.6232 7.84533 94.3308 8.49133 94.3308 9.28445C94.3308 10.0776 94.6232 10.73 95.2079 11.2417Z" fill="url(#paint1_linear_125_14742)"/>
<path id="Vector_3" d="M84.4819 4.21875C85.9962 4.21875 87.2856 4.71125 88.3501 5.69625C89.4296 6.66845 89.9694 7.86452 89.9694 9.28445C89.9694 10.7044 89.4296 11.9068 88.3501 12.8918C87.2856 13.864 85.9962 14.3502 84.4819 14.3502C82.9077 14.3502 81.6932 13.8832 80.8386 12.9494V17.9192H77.9375V4.48739H80.8386V5.61949C81.6932 4.68566 82.9077 4.21875 84.4819 4.21875ZM81.7157 11.2417C82.3005 11.7405 83.0426 11.99 83.9422 11.99C84.8418 11.99 85.5839 11.7405 86.1686 11.2417C86.7684 10.73 87.0682 10.0776 87.0682 9.28445C87.0682 8.49133 86.7684 7.84533 86.1686 7.34644C85.5839 6.83475 84.8418 6.5789 83.9422 6.5789C83.0426 6.5789 82.3005 6.83475 81.7157 7.34644C81.131 7.84533 80.8386 8.49133 80.8386 9.28445C80.8386 10.0776 81.131 10.73 81.7157 11.2417Z" fill="url(#paint2_linear_125_14742)"/>
<path id="Vector_4" d="M72.3807 0.648438H75.2819V14.0802H72.3807V12.9481C71.5261 13.8819 70.3117 14.3489 68.7374 14.3489C67.2231 14.3489 65.9262 13.8628 64.8468 12.8905C63.7823 11.9055 63.25 10.7031 63.25 9.28315C63.25 7.86322 63.7823 6.66715 64.8468 5.69495C65.9262 4.70995 67.2231 4.21745 68.7374 4.21745C70.3117 4.21745 71.5261 4.68437 72.3807 5.6182V0.648438ZM67.0282 11.2404C67.628 11.7393 68.3776 11.9887 69.2772 11.9887C70.1768 11.9887 70.9189 11.7393 71.5036 11.2404C72.0884 10.7287 72.3807 10.0763 72.3807 9.28315C72.3807 8.49004 72.0884 7.84403 71.5036 7.34514C70.9189 6.83345 70.1768 6.57761 69.2772 6.57761C68.3776 6.57761 67.628 6.83345 67.0282 7.34514C66.4435 7.84403 66.1511 8.49004 66.1511 9.28315C66.1511 10.0763 66.4435 10.7287 67.0282 11.2404Z" fill="url(#paint3_linear_125_14742)"/>
<path id="Vector_5" d="M57.1349 4.21875C58.3643 4.21875 59.3763 4.57053 60.171 5.2741C60.9806 5.97767 61.3854 6.94988 61.3854 8.19072V14.0815H58.4843V8.49773C58.4843 7.85812 58.2818 7.37202 57.877 7.03942C57.4722 6.69403 56.9325 6.52134 56.2578 6.52134C55.5081 6.52134 54.9084 6.71962 54.4586 7.11618C54.0089 7.51273 53.784 8.10757 53.784 8.90068V14.0815H50.8828V4.48739H53.784V5.56193C54.4886 4.66648 55.6056 4.21875 57.1349 4.21875Z" fill="url(#paint4_linear_125_14742)"/>
<path id="Vector_6" d="M46.7689 3.34C46.2891 3.34 45.8693 3.19289 45.5094 2.89867C45.1646 2.59165 44.9922 2.23347 44.9922 1.82412C44.9922 1.41477 45.1646 1.05659 45.5094 0.749581C45.8693 0.442569 46.2891 0.289062 46.7689 0.289062C47.2636 0.289062 47.6834 0.442569 48.0283 0.749581C48.3881 1.05659 48.568 1.41477 48.568 1.82412C48.568 2.23347 48.3881 2.59165 48.0283 2.89867C47.6834 3.19289 47.2636 3.34 46.7689 3.34ZM45.3295 14.0854V4.49129H48.2307V14.0854H45.3295Z" fill="url(#paint5_linear_125_14742)"/>
<path id="Vector_7" d="M38.6164 4.21875C39.9058 4.21875 40.9328 4.57693 41.6974 5.29329C42.4771 6.00965 42.8669 6.96907 42.8669 8.17153V14.0815H39.9657V8.34422C39.9657 7.76858 39.8008 7.32085 39.471 7.00105C39.1411 6.68124 38.6763 6.52134 38.0766 6.52134C37.4169 6.52134 36.8997 6.70683 36.5248 7.0778C36.165 7.44877 35.9851 7.98604 35.9851 8.68961V14.0815H33.084V8.34422C33.084 7.76858 32.919 7.32085 32.5892 7.00105C32.2593 6.68124 31.7946 6.52134 31.1948 6.52134C30.5501 6.52134 30.0329 6.70683 29.6431 7.0778C29.2682 7.44877 29.0808 7.98604 29.0808 8.68961V14.0815H26.1797V4.48739H29.0808V5.50436C29.7555 4.64729 30.7975 4.21875 32.2069 4.21875C33.5862 4.21875 34.6057 4.67927 35.2654 5.6003C36.0151 4.67927 37.1321 4.21875 38.6164 4.21875Z" fill="url(#paint6_linear_125_14742)"/>
<path id="Vector_8" d="M15.5517 10.3014C15.9415 11.5039 16.9985 12.1051 18.7227 12.1051C19.8322 12.1051 20.6718 11.7853 21.2415 11.1457L23.5804 12.297C22.471 13.6658 20.8367 14.3502 18.6777 14.3502C16.8186 14.3502 15.3268 13.8704 14.2023 12.911C13.0779 11.9516 12.5156 10.7428 12.5156 9.28445C12.5156 7.83893 13.0704 6.63647 14.1798 5.67706C15.2893 4.70485 16.7137 4.21875 18.4528 4.21875C20.1021 4.21875 21.4589 4.70485 22.5234 5.67706C23.6029 6.64926 24.1427 7.85173 24.1427 9.28445C24.1427 9.60425 24.1052 9.94325 24.0302 10.3014H15.5517ZM15.5067 8.3826H21.2415C21.0766 7.7302 20.7318 7.2441 20.207 6.92429C19.6973 6.60449 19.1125 6.44459 18.4528 6.44459C17.6732 6.44459 17.0285 6.61728 16.5188 6.96267C16.009 7.29527 15.6716 7.76858 15.5067 8.3826Z" fill="url(#paint7_linear_125_14742)"/>
<path id="Vector_9" d="M8.63596 14.0802L5.46494 9.41747H3.10355V14.0802H0V0.648438H6.29705C7.75137 0.648438 8.98829 1.08337 10.0078 1.95324C11.0273 2.82311 11.5371 3.87207 11.5371 5.10011C11.5371 5.9316 11.2597 6.70553 10.705 7.42189C10.1502 8.12546 9.41559 8.65634 8.50102 9.01452L11.9869 14.0802H8.63596ZM3.10355 3.12372V7.09569H6.29705C6.88178 7.09569 7.38404 6.90381 7.80385 6.52004C8.22365 6.12349 8.43355 5.65018 8.43355 5.10011C8.43355 4.55005 8.22365 4.08314 7.80385 3.69937C7.38404 3.31561 6.88178 3.12372 6.29705 3.12372H3.10355Z" fill="url(#paint8_linear_125_14742)"/>
</g>
<defs>
<linearGradient id="paint0_linear_125_14742" x1="-3.0724" y1="-2.92223" x2="117.14" y2="20.2141" gradientUnits="userSpaceOnUse">
<stop stop-color="#4318FF"/>
<stop offset="1" stop-color="#9328FF"/>
</linearGradient>
<linearGradient id="paint1_linear_125_14742" x1="-3.07384" y1="-2.92625" x2="117.139" y2="20.2101" gradientUnits="userSpaceOnUse">
<stop stop-color="#4318FF"/>
<stop offset="1" stop-color="#9328FF"/>
</linearGradient>
<linearGradient id="paint2_linear_125_14742" x1="-3.07286" y1="-2.92626" x2="117.14" y2="20.2101" gradientUnits="userSpaceOnUse">
<stop stop-color="#4318FF"/>
<stop offset="1" stop-color="#9328FF"/>
</linearGradient>
<linearGradient id="paint3_linear_125_14742" x1="-3.07527" y1="-2.92756" x2="117.137" y2="20.2088" gradientUnits="userSpaceOnUse">
<stop stop-color="#4318FF"/>
<stop offset="1" stop-color="#9328FF"/>
</linearGradient>
<linearGradient id="paint4_linear_125_14742" x1="-3.06992" y1="-2.92626" x2="117.143" y2="20.2101" gradientUnits="userSpaceOnUse">
<stop stop-color="#4318FF"/>
<stop offset="1" stop-color="#9328FF"/>
</linearGradient>
<linearGradient id="paint5_linear_125_14742" x1="-3.06672" y1="-2.92235" x2="117.146" y2="20.214" gradientUnits="userSpaceOnUse">
<stop stop-color="#4318FF"/>
<stop offset="1" stop-color="#9328FF"/>
</linearGradient>
<linearGradient id="paint6_linear_125_14742" x1="-3.06537" y1="-2.92626" x2="117.147" y2="20.2101" gradientUnits="userSpaceOnUse">
<stop stop-color="#4318FF"/>
<stop offset="1" stop-color="#9328FF"/>
</linearGradient>
<linearGradient id="paint7_linear_125_14742" x1="-3.07709" y1="-2.92626" x2="117.135" y2="20.2101" gradientUnits="userSpaceOnUse">
<stop stop-color="#4318FF"/>
<stop offset="1" stop-color="#9328FF"/>
</linearGradient>
<linearGradient id="paint8_linear_125_14742" x1="-3.06906" y1="-2.92755" x2="117.143" y2="20.2088" gradientUnits="userSpaceOnUse">
<stop stop-color="#4318FF"/>
<stop offset="1" stop-color="#9328FF"/>
</linearGradient>
</defs>
</svg>
