<svg width="24" height="24" viewBox="0 0 24 24" fill="none" xmlns="http://www.w3.org/2000/svg">
<g id="vuesax/outline/save-2">
<g id="save-2">
<g id="Vector">
<path d="M3.30219 22.7472C2.94219 22.7472 2.59218 22.6572 2.29218 22.4772C1.62218 22.0872 1.24219 21.3072 1.24219 20.3372V8.9772C1.24219 6.8472 2.97217 5.11719 5.10217 5.11719H12.8822C15.0122 5.11719 16.7422 6.8472 16.7422 8.9772V20.3372C16.7422 21.3072 16.3622 22.0772 15.6922 22.4772C15.0222 22.8672 14.1622 22.8272 13.3122 22.3572L9.3822 20.1672C9.1922 20.0572 8.79217 20.0572 8.60217 20.1672L4.67218 22.3572C4.21218 22.6172 3.74219 22.7472 3.30219 22.7472ZM5.11218 6.6272C3.81218 6.6272 2.7522 7.68718 2.7522 8.98718V20.3472C2.7522 20.7572 2.87219 21.0772 3.06219 21.1872C3.25219 21.2972 3.59221 21.2472 3.95221 21.0472L7.8822 18.8572C8.5222 18.5072 9.48219 18.5072 10.1222 18.8572L14.0522 21.0472C14.4122 21.2472 14.7422 21.2972 14.9422 21.1872C15.1322 21.0772 15.2522 20.7572 15.2522 20.3472V8.98718C15.2522 7.68718 14.1922 6.6272 12.8922 6.6272H5.11218Z" fill="#100E26"/>
<path d="M3.30219 22.7472C2.94219 22.7472 2.59218 22.6572 2.29218 22.4772C1.62218 22.0872 1.24219 21.3072 1.24219 20.3372V8.9772C1.24219 6.8472 2.97217 5.11719 5.10217 5.11719H12.8822C15.0122 5.11719 16.7422 6.8472 16.7422 8.9772V20.3372C16.7422 21.3072 16.3622 22.0772 15.6922 22.4772C15.0222 22.8672 14.1622 22.8272 13.3122 22.3572L9.3822 20.1672C9.1922 20.0572 8.79217 20.0572 8.60217 20.1672L4.67218 22.3572C4.21218 22.6172 3.74219 22.7472 3.30219 22.7472ZM5.11218 6.6272C3.81218 6.6272 2.7522 7.68718 2.7522 8.98718V20.3472C2.7522 20.7572 2.87219 21.0772 3.06219 21.1872C3.25219 21.2972 3.59221 21.2472 3.95221 21.0472L7.8822 18.8572C8.5222 18.5072 9.48219 18.5072 10.1222 18.8572L14.0522 21.0472C14.4122 21.2472 14.7422 21.2972 14.9422 21.1872C15.1322 21.0772 15.2522 20.7572 15.2522 20.3472V8.98718C15.2522 7.68718 14.1922 6.6272 12.8922 6.6272H5.11218Z" fill="black" fill-opacity="0.2"/>
</g>
<g id="Vector_2">
<path d="M14.69 22.7506C14.25 22.7506 13.79 22.6206 13.32 22.3706L9.39001 20.1806C9.20001 20.0806 8.78998 20.0806 8.59998 20.1806L4.67999 22.3706C3.82999 22.8406 2.95999 22.8806 2.29999 22.4906C1.62999 22.1006 1.25 21.3206 1.25 20.3606V9.00061C1.25 6.87061 2.97999 5.14062 5.10999 5.14062H12.89C15.02 5.14062 16.75 6.87061 16.75 9.00061V20.3606C16.75 21.3206 16.37 22.1006 15.7 22.4906C15.4 22.6606 15.06 22.7506 14.69 22.7506ZM9 18.6006C9.4 18.6006 9.79 18.6906 10.12 18.8706L14.05 21.0606C14.41 21.2606 14.75 21.3106 14.94 21.1906C15.13 21.0806 15.25 20.7606 15.25 20.3506V8.9906C15.25 7.6906 14.19 6.63062 12.89 6.63062H5.10999C3.80999 6.63062 2.75 7.6906 2.75 8.9906V20.3506C2.75 20.7606 2.87 21.0806 3.06 21.1906C3.25 21.3006 3.59001 21.2506 3.95001 21.0506L7.88 18.8606C8.20001 18.6906 8.6 18.6006 9 18.6006Z" fill="#100E26"/>
<path d="M14.69 22.7506C14.25 22.7506 13.79 22.6206 13.32 22.3706L9.39001 20.1806C9.20001 20.0806 8.78998 20.0806 8.59998 20.1806L4.67999 22.3706C3.82999 22.8406 2.95999 22.8806 2.29999 22.4906C1.62999 22.1006 1.25 21.3206 1.25 20.3606V9.00061C1.25 6.87061 2.97999 5.14062 5.10999 5.14062H12.89C15.02 5.14062 16.75 6.87061 16.75 9.00061V20.3606C16.75 21.3206 16.37 22.1006 15.7 22.4906C15.4 22.6606 15.06 22.7506 14.69 22.7506ZM9 18.6006C9.4 18.6006 9.79 18.6906 10.12 18.8706L14.05 21.0606C14.41 21.2606 14.75 21.3106 14.94 21.1906C15.13 21.0806 15.25 20.7606 15.25 20.3506V8.9906C15.25 7.6906 14.19 6.63062 12.89 6.63062H5.10999C3.80999 6.63062 2.75 7.6906 2.75 8.9906V20.3506C2.75 20.7606 2.87 21.0806 3.06 21.1906C3.25 21.3006 3.59001 21.2506 3.95001 21.0506L7.88 18.8606C8.20001 18.6906 8.6 18.6006 9 18.6006Z" fill="black" fill-opacity="0.2"/>
</g>
<g id="Vector_3">
<path d="M20.69 18.8678C20.25 18.8678 19.79 18.7378 19.32 18.4878L15.63 16.4278C15.39 16.2978 15.25 16.0478 15.25 15.7778V8.9978C15.25 7.6978 14.19 6.63782 12.89 6.63782H8C7.59 6.63782 7.25 6.29782 7.25 5.88782V5.1178C7.25 2.9878 8.97999 1.25781 11.11 1.25781H18.89C21.02 1.25781 22.75 2.9878 22.75 5.1178V16.4778C22.75 17.4378 22.37 18.2178 21.7 18.6078C21.4 18.7778 21.06 18.8678 20.69 18.8678ZM16.75 15.3278L20.05 17.1778C20.41 17.3778 20.74 17.4278 20.94 17.3078C21.14 17.1878 21.25 16.8778 21.25 16.4678V5.10779C21.25 3.80779 20.19 2.7478 18.89 2.7478H11.11C9.80999 2.7478 8.75 3.80779 8.75 5.10779V5.12781H12.89C15.02 5.12781 16.75 6.85779 16.75 8.98779V15.3278Z" fill="#100E26"/>
<path d="M20.69 18.8678C20.25 18.8678 19.79 18.7378 19.32 18.4878L15.63 16.4278C15.39 16.2978 15.25 16.0478 15.25 15.7778V8.9978C15.25 7.6978 14.19 6.63782 12.89 6.63782H8C7.59 6.63782 7.25 6.29782 7.25 5.88782V5.1178C7.25 2.9878 8.97999 1.25781 11.11 1.25781H18.89C21.02 1.25781 22.75 2.9878 22.75 5.1178V16.4778C22.75 17.4378 22.37 18.2178 21.7 18.6078C21.4 18.7778 21.06 18.8678 20.69 18.8678ZM16.75 15.3278L20.05 17.1778C20.41 17.3778 20.74 17.4278 20.94 17.3078C21.14 17.1878 21.25 16.8778 21.25 16.4678V5.10779C21.25 3.80779 20.19 2.7478 18.89 2.7478H11.11C9.80999 2.7478 8.75 3.80779 8.75 5.10779V5.12781H12.89C15.02 5.12781 16.75 6.85779 16.75 8.98779V15.3278Z" fill="black" fill-opacity="0.2"/>
</g>
</g>
</g>
</svg>
