<svg width="18" height="18" viewBox="0 0 18 18" fill="none" xmlns="http://www.w3.org/2000/svg">
<g id="vuesax/outline/twitch">
<g id="twitch">
<path id="Vector" d="M6.79202 16.4587H4.64672C4.35353 16.4587 4.1104 16.2158 4.1104 15.923V14.3158H1.78632C1.49313 14.3158 1.25 14.073 1.25 13.7801V3.78013C1.25 3.67299 1.27861 3.57298 1.34297 3.48012L2.77317 1.33727C2.87328 1.18727 3.03775 1.10156 3.21652 1.10156H15.3732C15.6664 1.10156 15.9095 1.34442 15.9095 1.63728V10.2087C15.9095 10.3516 15.8523 10.4873 15.7522 10.5873L12.1767 14.1587C12.0766 14.2587 11.9407 14.3158 11.7977 14.3158H8.50826L7.23538 16.223C7.13527 16.3659 6.9708 16.4587 6.79202 16.4587ZM5.18305 15.3873H6.50599L7.77886 13.4801C7.87898 13.3301 8.04345 13.2444 8.22222 13.2444H11.576L14.8369 9.98728V2.17299H3.50256L2.32265 3.94443V13.2444H4.64672C4.93991 13.2444 5.18305 13.4873 5.18305 13.7801V15.3873Z" fill="#211F51"/>
<path id="Vector_2" d="M7.86496 10.029H6.43476C6.14157 10.029 5.89844 9.78616 5.89844 9.4933V5.20759C5.89844 4.91473 6.14157 4.67188 6.43476 4.67188H7.86496C8.15815 4.67188 8.40129 4.91473 8.40129 5.20759V9.4933C8.40129 9.78616 8.15815 10.029 7.86496 10.029ZM6.97109 8.95759H7.32864V5.7433H6.97109V8.95759Z" fill="#211F51"/>
<path id="Vector_3" d="M11.4431 10.029H10.0129C9.7197 10.029 9.47656 9.78616 9.47656 9.4933V5.20759C9.47656 4.91473 9.7197 4.67188 10.0129 4.67188H11.4431C11.7363 4.67188 11.9794 4.91473 11.9794 5.20759V9.4933C11.9794 9.78616 11.7363 10.029 11.4431 10.029ZM10.5492 8.95759H10.9068V5.7433H10.5492V8.95759Z" fill="#211F51"/>
</g>
</g>
</svg>
